<?xml version="1.0" standalone="no"?>
<!DOCTYPE svg PUBLIC "-//W3C//DTD SVG 20010904//EN"
        "http://www.w3.org/TR/2001/REC-SVG-20010904/DTD/svg10.dtd">
<svg version="1.0" xmlns="http://www.w3.org/2000/svg"
     width="844.000000pt" height="844.000000pt" viewBox="0 0 844.000000 844.000000"
     preserveAspectRatio="xMidYMid meet">
    <metadata>
        Created by potrace 1.14, written by Peter Selinger 2001-2017
    </metadata>
    <g transform="translate(0.000000,844.000000) scale(0.100000,-0.100000)"
       fill="#000000" stroke="none">
        <path d="M8310 7880 c-58 -10 -121 -21 -140 -24 -19 -4 -87 -16 -150 -27 -63
-11 -124 -22 -135 -24 -11 -1 -60 -10 -110 -20 -49 -9 -99 -19 -110 -21 -11
-2 -67 -13 -125 -24 -58 -12 -116 -23 -130 -26 -43 -8 -63 -13 -110 -24 -25
-7 -58 -13 -75 -15 -16 -2 -31 -4 -32 -5 -2 -2 -7 -4 -13 -5 -5 -1 -13 -4 -17
-5 -5 -1 -11 -2 -15 -1 -3 0 -30 -6 -60 -13 -29 -8 -80 -20 -113 -27 -78 -16
-62 -12 -209 -49 -71 -17 -137 -33 -145 -35 -62 -15 -339 -87 -351 -92 -8 -3
-19 -7 -25 -8 -5 -2 -30 -8 -55 -16 -25 -7 -49 -13 -55 -14 -5 -2 -44 -13 -85
-25 -41 -12 -82 -24 -90 -25 -8 -2 -15 -4 -15 -5 0 -1 -7 -3 -15 -5 -25 -5
-271 -85 -345 -112 -38 -13 -74 -26 -80 -27 -20 -4 -150 -49 -160 -55 -5 -3
-14 -6 -20 -8 -5 -1 -41 -14 -80 -28 -38 -14 -100 -37 -137 -50 -37 -14 -92
-36 -123 -49 -30 -14 -56 -25 -58 -25 -1 0 -15 -5 -32 -11 -16 -6 -31 -11 -32
-11 -2 0 -75 -32 -168 -74 -255 -115 -304 -135 -311 -134 -4 0 -10 -3 -13 -9
-3 -5 -62 -36 -131 -70 -127 -63 -263 -134 -335 -176 -22 -13 -58 -34 -80 -46
-80 -44 -130 -74 -135 -80 -3 -3 -16 -11 -30 -18 -14 -6 -52 -30 -85 -52 -33
-21 -67 -43 -75 -47 -26 -14 -165 -106 -170 -113 -3 -4 -16 -13 -29 -20 -14
-7 -30 -17 -35 -22 -6 -5 -49 -36 -96 -70 -47 -33 -104 -75 -127 -94 -23 -19
-46 -34 -51 -34 -6 0 -12 -4 -14 -9 -1 -5 -39 -37 -83 -71 -76 -61 -123 -100
-151 -128 -8 -7 -14 -11 -14 -9 0 3 -15 -9 -33 -26 -19 -18 -64 -59 -102 -92
-78 -68 -372 -359 -455 -450 -118 -130 -138 -153 -210 -240 -41 -49 -78 -91
-82 -93 -4 -2 -8 -8 -8 -13 0 -5 -11 -22 -24 -37 -40 -44 -60 -69 -76 -92 -8
-11 -46 -62 -83 -113 -114 -153 -397 -584 -397 -604 0 -6 -3 -13 -8 -15 -7 -3
-82 -125 -82 -133 0 -2 -13 -26 -28 -52 -43 -73 -224 -417 -227 -433 -1 -3
-22 -48 -47 -100 -25 -52 -52 -111 -60 -130 -9 -19 -28 -60 -42 -91 -14 -31
-26 -61 -26 -67 0 -7 -5 -12 -12 -12 -6 0 -9 -3 -5 -6 3 -4 0 -19 -9 -35 -8
-16 -14 -31 -15 -34 0 -4 -44 -112 -73 -180 -8 -16 -22 -52 -31 -80 -10 -27
-22 -55 -27 -61 -4 -6 -9 -19 -11 -30 -2 -10 -10 -32 -16 -49 -23 -55 -82
-219 -92 -255 -6 -19 -12 -41 -14 -48 -3 -7 -3 -14 -2 -16 1 -1 -3 -9 -9 -17
-6 -8 -24 -54 -39 -104 -16 -49 -32 -96 -38 -103 -5 -6 -7 -12 -3 -12 3 0 0
-17 -8 -37 -15 -40 -66 -208 -71 -233 -2 -8 -4 -15 -5 -15 -1 0 -3 -7 -5 -15
-2 -8 -19 -69 -39 -135 -41 -143 -130 -478 -142 -535 -3 -14 -10 -43 -16 -65
-6 -22 -12 -47 -14 -55 -5 -31 -15 -77 -29 -130 -8 -30 -12 -56 -9 -59 5 -6
19 -8 96 -16 31 -3 65 -7 75 -9 10 -2 45 -7 78 -11 76 -9 88 -10 151 -19 l52
-8 12 54 c6 29 14 64 16 78 3 14 9 41 14 60 5 19 12 53 15 75 4 22 8 48 11 57
3 9 7 25 9 35 2 10 11 52 20 93 9 41 18 84 21 95 2 11 7 33 10 49 7 40 10 44
47 60 39 16 214 76 236 81 9 2 31 8 49 14 18 5 34 10 37 11 3 0 10 2 17 4 7 3
27 8 43 12 17 4 32 8 35 9 3 0 21 4 40 8 19 4 46 10 60 13 14 3 36 7 50 10 14
2 36 7 50 10 14 3 41 7 60 9 19 2 49 6 65 9 183 31 608 36 851 11 27 -2 74 -7
104 -10 30 -3 71 -8 90 -12 19 -3 38 -6 42 -5 4 1 31 -3 60 -9 29 -5 72 -12
94 -15 23 -2 53 -7 65 -9 13 -3 51 -10 84 -16 92 -16 100 -17 100 -20 0 -1 9
-3 20 -4 11 -2 31 -5 45 -8 23 -6 35 -8 100 -22 33 -7 88 -20 180 -41 14 -3
32 -7 40 -9 8 -2 15 -4 15 -5 0 -1 8 -3 17 -5 9 -2 47 -11 83 -20 37 -9 68
-15 69 -13 2 2 16 37 31 78 15 41 41 103 56 138 16 35 29 65 29 68 0 2 13 31
29 64 16 33 26 60 23 60 -4 0 -2 4 3 8 6 4 26 41 44 82 19 41 47 102 62 135
63 138 107 265 92 265 -5 0 -62 11 -128 24 -66 13 -145 27 -176 30 -31 4 -67
9 -79 11 -12 2 -51 7 -88 10 -37 3 -83 8 -102 10 -19 3 -77 7 -129 10 -51 3
-97 8 -102 10 -4 3 -10 1 -13 -4 -4 -5 -18 -6 -34 -2 -48 13 -639 4 -857 -14
-33 -2 -100 -7 -150 -11 -120 -8 -181 -13 -235 -19 -132 -14 -159 -16 -200
-20 -83 -8 -155 -16 -185 -21 -47 -6 -105 -14 -165 -20 -30 -3 -66 -7 -79 -9
-13 -2 -45 -7 -70 -10 -25 -4 -62 -8 -81 -11 -20 -3 -31 -1 -25 4 27 24 505
169 655 199 41 8 55 11 58 13 2 3 6 4 52 13 19 4 46 10 60 13 23 5 36 7 100
18 14 3 25 5 25 6 0 1 11 3 25 5 14 2 50 8 80 14 30 5 75 13 100 17 25 4 54 8
65 10 11 1 41 5 66 9 26 3 56 8 67 10 11 2 53 7 93 10 40 4 81 8 90 10 10 2
57 6 106 10 48 3 108 8 133 10 332 29 1012 24 1360 -10 36 -4 88 -9 115 -11
100 -7 161 -13 195 -18 19 -3 60 -8 90 -11 30 -2 91 -10 135 -15 44 -6 96 -13
115 -16 19 -2 50 -6 68 -9 21 -3 32 -1 32 7 0 11 78 224 101 273 5 11 47 121
93 245 47 124 105 279 131 345 26 66 51 134 57 150 5 17 16 44 23 60 7 17 16
41 20 55 4 14 13 39 20 55 8 17 25 59 38 93 l25 64 -96 -6 c-53 -4 -124 -8
-157 -11 -33 -3 -91 -7 -130 -10 -80 -6 -141 -11 -235 -19 -36 -3 -92 -8 -125
-11 -33 -3 -82 -7 -110 -10 -27 -3 -70 -7 -95 -10 -45 -4 -139 -14 -195 -21
-16 -2 -52 -6 -80 -9 -109 -11 -131 -14 -165 -19 -19 -3 -55 -8 -80 -11 -25
-3 -61 -7 -80 -10 -19 -3 -48 -7 -65 -9 -57 -7 -130 -17 -155 -22 -141 -24
-278 -46 -293 -47 -9 -1 -17 -5 -17 -10 0 -4 -4 -6 -9 -2 -5 3 -31 0 -58 -6
-26 -5 -61 -12 -78 -15 -16 -2 -37 -6 -45 -7 -19 -5 -80 -17 -100 -21 -8 -2
-26 -6 -40 -9 -14 -4 -38 -9 -55 -11 -16 -3 -50 -10 -75 -16 -25 -7 -56 -14
-70 -16 -14 -3 -52 -12 -85 -21 -33 -8 -67 -16 -75 -18 -8 -2 -42 -10 -75 -19
-33 -9 -71 -19 -85 -22 -14 -3 -34 -8 -45 -11 -11 -4 -24 -8 -30 -9 -40 -8
-446 -132 -495 -151 -8 -4 -18 -7 -22 -8 -5 -2 -9 -3 -10 -4 -2 -2 -13 -4 -26
-7 -13 -2 -36 -11 -53 -19 -16 -9 -29 -13 -29 -9 0 4 -6 2 -12 -3 -7 -6 -34
-16 -60 -24 -27 -7 -48 -17 -48 -21 0 -4 -3 -7 -7 -6 -9 3 -177 -57 -206 -73
-26 -14 -67 -29 -67 -24 0 4 152 99 225 140 110 61 255 135 255 130 0 -2 17 5
38 16 71 41 475 205 547 223 6 1 82 26 170 54 224 72 405 122 655 180 208 49
493 109 555 118 17 2 41 6 55 9 14 3 39 7 55 10 17 3 55 10 85 16 30 7 69 13
85 15 17 2 46 6 65 9 19 3 49 8 65 10 17 2 45 6 63 9 90 16 135 23 201 31 30
4 63 8 74 11 11 2 43 6 71 10 28 3 65 8 81 10 17 2 48 6 70 8 22 3 56 7 75 10
19 3 60 8 90 11 30 3 71 8 90 10 42 5 128 14 190 20 25 3 72 7 105 11 103 10
118 12 195 18 41 3 95 8 120 10 99 10 179 16 250 21 41 3 104 8 140 11 55 4
200 13 278 17 12 1 22 1 22 2 0 0 32 92 71 205 39 113 102 295 139 405 99 288
205 593 224 645 10 25 18 50 20 55 7 27 76 232 93 275 3 8 7 20 9 25 1 6 5 18
9 28 7 16 2 17 -56 13 -35 -3 -80 -8 -99 -11 -19 -3 -57 -7 -85 -10 -27 -3
-66 -7 -85 -9 -19 -3 -55 -7 -80 -10 -25 -3 -54 -8 -65 -10 -11 -2 -45 -7 -75
-11 -78 -9 -108 -14 -165 -25 -27 -5 -68 -12 -90 -15 -22 -3 -51 -7 -65 -10
-14 -3 -39 -7 -57 -9 -18 -3 -36 -7 -40 -9 -4 -3 -33 -8 -63 -12 -30 -4 -58
-9 -61 -11 -4 -2 -24 -6 -44 -10 -21 -3 -47 -8 -59 -10 -11 -3 -32 -7 -46 -10
-14 -3 -86 -18 -160 -35 -74 -16 -146 -32 -160 -35 -14 -3 -29 -6 -35 -8 -5
-2 -28 -7 -50 -11 -55 -12 -55 -12 -57 -15 -2 -1 -10 -3 -18 -5 -70 -14 -317
-80 -326 -86 -6 -5 -13 -6 -17 -3 -3 3 -14 1 -24 -4 -10 -6 -31 -12 -48 -15
-16 -3 -60 -15 -98 -26 -37 -11 -71 -20 -75 -21 -4 0 -43 -12 -87 -26 -44 -14
-90 -28 -102 -30 -12 -2 -33 -8 -45 -13 -13 -5 -25 -9 -28 -9 -3 0 -12 -3 -20
-6 -8 -3 -62 -19 -120 -36 -58 -17 -112 -34 -120 -37 -8 -4 -17 -7 -20 -8 -3
0 -27 -8 -55 -18 -27 -9 -54 -18 -60 -18 -5 -1 -41 -13 -80 -26 -38 -14 -74
-26 -80 -27 -5 -2 -17 -6 -25 -9 -8 -3 -51 -18 -95 -32 -44 -14 -89 -30 -100
-35 -11 -5 -49 -19 -85 -30 -36 -11 -74 -25 -85 -29 -26 -11 -327 -122 -340
-126 -5 -1 -23 -8 -40 -14 -65 -28 -106 -40 -100 -31 3 6 10 10 16 10 5 0 39
18 75 40 36 22 68 40 70 40 2 0 25 13 51 28 186 110 751 389 776 384 4 -1 7 2
7 7 0 5 10 12 23 16 12 4 27 8 32 10 6 2 66 28 135 58 129 56 323 134 355 143
6 1 33 12 60 23 122 49 196 76 445 157 146 48 272 89 280 92 8 3 20 6 25 8 6
1 73 21 150 44 77 23 149 44 160 46 24 6 28 7 85 23 25 7 52 15 60 16 43 10
187 48 200 52 8 3 22 7 30 8 8 2 56 13 105 25 50 12 101 24 115 26 14 3 32 7
40 10 8 3 26 8 40 10 14 3 45 10 70 16 25 5 59 12 75 15 17 2 56 11 87 19 31
8 70 16 85 18 15 2 53 9 83 15 30 6 66 13 80 16 14 3 36 7 50 10 14 2 39 7 55
10 17 3 41 7 55 10 23 5 228 40 295 51 17 2 55 9 85 14 30 5 78 12 105 15 28
4 61 8 75 10 14 2 39 6 55 9 17 2 50 7 75 11 25 4 56 8 70 10 14 3 48 7 75 10
28 4 61 8 75 9 14 2 52 6 85 10 33 4 65 13 71 19 7 7 21 39 32 72 46 134 73
211 79 225 3 8 7 17 8 20 0 3 12 37 25 75 13 39 25 72 25 75 1 3 7 19 14 35 7
17 14 35 15 40 2 6 5 17 9 25 18 48 62 176 62 180 0 3 5 19 12 35 20 54 26 70
29 80 1 6 8 24 15 40 6 17 14 38 15 47 2 9 15 45 28 80 14 35 56 153 95 263
38 110 83 237 99 282 27 74 30 95 13 92 -3 -1 -53 -9 -111 -19z"/>
    </g>
</svg>
